<svg xmlns="http://www.w3.org/2000/svg" viewBox="0 0 32 32" fill="none">
  <rect width="32" height="32" rx="9" fill="url(#g)"/>
  <path d="M18.2 8.4c.9-.2 1.6.1 1.9.8.3.7 0 1.5-.8 1.9l1.1 4.3c1.2-.3 2.2-.1 2.9.6.8.8.9 2-.1 3.1-1 1.1-2.5 1.6-4.2 1.3l-.5 2h-1.6l.5-2c-.4-.1-.8-.2-1.2-.4l-.5 2H13l2.2-8.6c1.1-.3 2-.7 2.7-1.2l-1-3.9zm-1.2 5.8l.8 3.1c.8.2 1.4.1 1.8-.2.5-.4.5-1 0-1.5-.4-.5-1.1-.7-2-.6l-.6-2.8zm-2.1-3.3l.7 2.8c.7.1 1.2 0 1.5-.3.4-.3.4-.8 0-1.2-.3-.4-.9-.6-1.6-.5l-.6-2.8z" fill="#fff"/>
  <circle cx="24" cy="24" r="5" fill="#22c55e" stroke="#07111f" stroke-width="1.5"/>
  <path d="M22.2 24l1.3 1.3 2.5-2.6" stroke="#fff" stroke-width="1.4" stroke-linecap="round" stroke-linejoin="round"/>
  <defs>
    <linearGradient id="g" x1="4" y1="4" x2="28" y2="28" gradientUnits="userSpaceOnUse">
      <stop stop-color="#3b82f6"/>
      <stop offset="1" stop-color="#f7931a"/>
    </linearGradient>
  </defs>
</svg>
